<svg xmlns="http://www.w3.org/2000/svg" width="24" height="24" viewBox="0 0 24 24">
  <path d="M12 8a4 4 0 1 1 0 8 4 4 0 0 1 0-8z" fill="#2563eb"/>
  <path d="M4 12.5a8 8 0 0 1 0-1l2.1-.6a6.14 6.14 0 0 1 .6-1.4L5.8 7.8l.7-.7 1.7.9a6.14 6.14 0 0 1 1.4-.6L9.2 5h1l.6 2.1c.47-.04.94-.04 1.4 0L12.8 5h1l.6 2.1a6.14 6.14 0 0 1 1.4.6l1.7-.9.7.7-1 1.7c.24.45.44.92.6 1.4L20 11.5v1l-2.1.6a6.14 6.14 0 0 1-.6 1.4l1 1.7-.7.7-1.7-.9a6.14 6.14 0 0 1-1.4.6L13.8 19h-1l-.6-2.1a6.14 6.14 0 0 1-1.4 0L10.2 19h-1l-.6-2.1a6.14 6.14 0 0 1-1.4-.6l-1.7.9-.7-.7 1-1.7a6.14 6.14 0 0 1-.6-1.4z" fill="#1f2937"/>
</svg>
